<?xml version="1.0" standalone="no"?>
<!DOCTYPE svg PUBLIC "-//W3C//DTD SVG 20010904//EN"
 "http://www.w3.org/TR/2001/REC-SVG-20010904/DTD/svg10.dtd">
<svg version="1.0" xmlns="http://www.w3.org/2000/svg"
 width="200.000000pt" height="200.000000pt" viewBox="0 0 200.000000 200.000000"
 preserveAspectRatio="xMidYMid meet">
<metadata>
Created by potrace 1.14, written by Peter Selinger 2001-2017
</metadata>
<g transform="translate(0.000000,200.000000) scale(0.100000,-0.100000)"
fill="#000000" stroke="none">
<path d="M0 1000 l0 -1000 1000 0 1000 0 0 1000 0 1000 -1000 0 -1000 0 0
-1000z m1085 647 c53 -53 55 -94 11 -177 -29 -56 -36 -80 -36 -126 0 -104 54
-165 133 -150 57 11 129 65 153 116 12 24 34 54 48 67 81 69 206 13 206 -93 0
-92 -50 -134 -159 -134 -41 0 -74 -6 -100 -19 -133 -68 -145 -173 -27 -245 39
-25 62 -31 137 -36 101 -7 128 -23 147 -88 21 -71 -17 -143 -87 -162 -67 -18
-118 9 -159 85 -18 33 -44 61 -75 82 -124 83 -217 38 -217 -105 0 -56 5 -74
35 -128 39 -69 42 -89 21 -139 -39 -92 -173 -99 -226 -12 -28 46 -25 85 15
161 37 72 43 113 24 180 -15 54 -50 86 -94 86 -73 0 -164 -57 -188 -119 -33
-82 -109 -116 -181 -81 -74 35 -97 116 -53 181 31 46 60 59 137 59 53 0 74 5
116 30 67 38 94 73 94 119 -1 88 -88 151 -207 151 -79 0 -109 13 -140 59 -62
92 17 215 125 197 43 -7 74 -34 111 -101 44 -77 157 -131 221 -105 42 17 62
55 68 125 4 62 -5 92 -53 175 -19 33 -19 74 1 116 21 44 56 63 118 64 41 0 53
-5 81 -33z"/>
</g>
</svg>
